<svg xmlns="http://www.w3.org/2000/svg" viewBox="0 0 496 496"><path d="M352 92c0 44-36 80-80 80h-48c-44 0-80-36-80-80s36-80 80-80h48c44 0 80 36 80 80z" fill="#00233f"/><path fill="#f9bda0" d="M184 212h128v120H184z"/><path fill="#e28f71" d="M312 332h-64l-68-120h132z"/><path d="M348.8 125.6c0 80-49.6 152-100.8 152s-100.8-72-100.8-152S196.8 32.8 248 32.8c51.2 0 100.8 12.8 100.8 92.8z" fill="#fcccb9"/><path d="M248 32.8c51.2 0 100.8 13.6 100.8 92.8 0 80-49.6 152-100.8 152" fill="#f9bda0"/><path d="M280 25.6C280 36 272 44 261.6 44h-27.2C224 44 216 36 216 25.6v-3.2C216 12 224 4 234.4 4h27.2C272 4 280 12 280 22.4v3.2z" fill="#00233f"/><path fill="#0c537a" d="M176 292.8L0 358.4V492h240.8z"/><path fill="#00233f" d="M176 292.8L32.8 373.6 0 492h240.8z"/><path fill="#d6d6d6" d="M176 283.2l-40.8 17.6 28.8 78.4L240 492V329.6z"/><path fill="#fff" d="M176.8 283.2l63.2 46.4-76 49.6z"/><path fill="#0c537a" d="M320 292.8l176 65.6V492H255.2z"/><path fill="#00233f" d="M320 292.8l143.2 80.8L496 492H255.2z"/><path fill="#d6d6d6" d="M320 283.2l40.8 17.6-28.8 78.4L256 492V329.6z"/><path fill="#fff" d="M319.2 283.2L256 329.6l76 49.6z"/><path fill="#0c537a" d="M229.6 340.8l9.6 14.4-14.4 118.4 16.8 18.4h6.4V329.6z"/><path fill="#00233f" d="M266.4 340.8l-9.6 14.4 14.4 118.4-16.8 18.4H248V329.6z"/></svg>